<svg width="46" height="46" viewBox="0 0 46 46" fill="none" xmlns="http://www.w3.org/2000/svg">
<path fill-rule="evenodd" clip-rule="evenodd" d="M30.5 6.57996H15.5C10.3223 6.57996 6.125 10.7773 6.125 15.955V30.955C6.125 36.1326 10.3223 40.33 15.5 40.33H30.5C35.6776 40.33 39.875 36.1326 39.875 30.955V15.955C39.875 10.7773 35.6776 6.57996 30.5 6.57996ZM36.5938 30.955C36.5834 34.3161 33.8611 37.0384 30.5 37.0487H15.5C12.1388 37.0384 9.41654 34.3161 9.40625 30.955V15.955C9.41654 12.5937 12.1388 9.8715 15.5 9.86121H30.5C33.8611 9.8715 36.5834 12.5937 36.5938 15.955V30.955ZM31.9063 16.4237C32.9418 16.4237 33.7813 15.5842 33.7813 14.5487C33.7813 13.5132 32.9418 12.6737 31.9063 12.6737C30.8707 12.6737 30.0313 13.5132 30.0313 14.5487C30.0313 15.5842 30.8707 16.4237 31.9063 16.4237ZM23 15.0175C18.3401 15.0175 14.5625 18.7951 14.5625 23.455C14.5625 28.1149 18.3401 31.8925 23 31.8925C27.6599 31.8925 31.4375 28.1149 31.4375 23.455C31.4426 21.2156 30.5551 19.0667 28.9717 17.4832C27.3883 15.8998 25.2393 15.0125 23 15.0175ZM17.8438 23.455C17.8438 26.3027 20.1523 28.6112 23 28.6112C25.8478 28.6112 28.1563 26.3027 28.1563 23.455C28.1563 20.6072 25.8478 18.2987 23 18.2987C20.1523 18.2987 17.8438 20.6072 17.8438 23.455Z" fill="white"/>
</svg>
