<svg width="46" height="46" viewBox="0 0 46 46" fill="none" xmlns="http://www.w3.org/2000/svg">
<path fill-rule="evenodd" clip-rule="evenodd" d="M9.10352 6.57996C7.55021 6.57996 6.29102 7.83915 6.29102 9.39246V37.5175C6.29102 39.0707 7.55021 40.33 9.10352 40.33H37.2285C38.7818 40.33 40.041 39.0707 40.041 37.5175V9.39246C40.041 7.83915 38.7818 6.57996 37.2285 6.57996H9.10352ZM16.6424 14.0851C16.653 15.878 15.3109 16.9828 13.7183 16.9749C12.218 16.967 10.9102 15.7726 10.9181 14.0877C10.926 12.503 12.1785 11.2295 13.8053 11.2664C15.4559 11.3033 16.653 12.5136 16.6424 14.0851ZM23.6905 19.2583H18.9655H18.9628V35.308H23.9567V34.9335C23.9567 34.2212 23.9561 33.5087 23.9556 32.796C23.9541 30.8951 23.9524 28.9922 23.9621 27.0919C23.9648 26.6305 23.9858 26.1506 24.1045 25.7102C24.55 24.0649 26.0293 23.0023 27.6799 23.2635C28.7398 23.4295 29.4411 24.0439 29.7364 25.0433C29.9185 25.668 30.0002 26.3404 30.0081 26.9918C30.0295 28.956 30.0265 30.9203 30.0235 32.8847C30.0223 33.5781 30.0212 34.2718 30.0212 34.9652V35.3053H35.031V34.9204C35.031 34.0729 35.0306 33.2256 35.0301 32.3783C35.0291 30.2605 35.028 28.1426 35.0336 26.0241C35.0363 25.0669 34.9335 24.123 34.6988 23.1975C34.3481 21.8211 33.6231 20.682 32.4445 19.8595C31.6086 19.2741 30.691 18.897 29.6653 18.8548C29.5485 18.85 29.4308 18.8436 29.3125 18.8372C28.788 18.8089 28.255 18.7801 27.7536 18.8812C26.3192 19.1686 25.059 19.8251 24.1071 20.9826C23.9965 21.1153 23.8883 21.2501 23.7268 21.4513L23.6905 21.4969V19.2583ZM11.3191 35.3132H16.2893V19.2687H11.3191V35.3132Z" fill="white"/>
</svg>
