<svg width="248" height="56" viewBox="0 0 248 56" fill="none" xmlns="http://www.w3.org/2000/svg">
<g clip-path="url(#clip0_7574_1301)">
<path d="M28.6913 21.5397C26.4482 15.5063 21.5788 9.33302 15.0484 9.33302C10.1789 9.33302 6.72918 11.0128 6.72918 16.0663C6.72918 28.133 31.63 25.2493 31.63 42.2994C31.63 51.4124 25.0995 55.486 17.2914 55.486C13.0609 55.486 7.62356 53.4562 5.63604 53.4562C4.67067 53.4562 3.84727 53.8762 2.93869 54.2261C2.17208 48.8927 1.07894 43.7693 0 38.5758L0.837598 38.0859C3.97504 44.5392 9.48331 53.2322 17.1637 53.2322C22.1609 53.2322 26.647 50.9925 26.647 44.8891C26.6328 31.5066 1.73198 33.7464 1.73198 19.1599C1.73198 11.7967 7.29704 7.09326 13.6429 7.09326C16.7804 7.09326 19.208 7.6532 21.5788 8.21314C24.0064 8.77308 26.3205 9.40301 29.0746 9.40301C29.0746 13.4766 29.1456 17.5361 29.5857 21.5397H28.6913Z" fill="#003170"/>
<path d="M50.4118 42.1734C49.0064 41.7535 47.5867 41.5435 46.1245 41.5435C42.7883 41.5435 39.3385 43.1533 39.3385 47.2969C39.3385 50.4465 41.7093 51.7204 44.2079 51.7204C46.9053 51.7204 49.3897 50.1106 50.426 49.2707V42.1874L50.4118 42.1734ZM36.5134 33.6064C37.7911 27.783 41.4396 27.1531 46.1245 27.1531C50.8093 27.1531 55.2813 29.1129 55.2813 34.9362V47.9128C55.2813 49.6626 56.1189 51.2864 57.9076 51.2864C59.5686 51.2864 60.8605 49.9566 62.0672 48.9067L62.7061 49.6766C60.9173 51.4964 58.0922 55.22 55.4658 55.22C53.6771 55.22 51.6895 52.4063 50.4686 51.1465C47.7855 53.1762 44.1228 55.22 40.8717 55.22C37.2232 55.22 33.958 52.4763 33.958 48.2768C33.958 40.5636 42.476 39.5837 50.5396 39.4297V34.0963C50.5396 30.6527 48.3675 28.6929 45.3579 28.6929C43.1858 28.6929 41.7661 31.5766 41.7661 34.6563L36.5134 33.6064Z" fill="#003170"/>
<path d="M60.3926 53.5402C64.7509 53.1903 65.191 51.7904 65.191 46.387V11.1669C65.191 7.51326 64.609 6.2534 60.7759 6.2534V5.41349L70.1882 4.15363V46.387C70.1882 51.7904 70.6425 53.1903 75.2422 53.5402V54.3801C72.7436 54.2402 70.1172 54.1002 67.5618 54.1002C65.0065 54.1002 62.7634 54.2402 60.3926 54.3801V53.5402Z" fill="#003170"/>
<path d="M92.4343 37.26C91.9942 32.1365 90.9011 29.2668 86.1026 29.2668C82.4541 29.2668 80.0833 33.5504 80.0833 37.26H92.4343ZM79.9555 39.3597C79.9555 49.0467 85.2082 51.7064 88.6012 51.7064C91.9942 51.7064 95.0039 50.5165 97.5025 47.7728L98.5956 48.8927C95.1316 52.9663 91.7528 55.206 86.6279 55.206C79.2599 55.206 74.8447 48.3328 74.8447 41.1795C74.8447 34.0263 79.2599 27.1531 86.6279 27.1531C93.3571 27.1531 97.5734 31.2826 98.5388 39.3597H79.9697" fill="#003170"/>
<path d="M181.957 36.63C181.957 32.1365 181.702 29.8268 177.216 29.2669V28.287L186.955 27.587V48.2208C186.955 52.7843 188.232 53.4142 192.009 53.5542V54.3941C188.999 54.2541 185.989 54.1141 182.98 54.1141C181.063 54.1141 179.132 54.2541 177.216 54.3941V53.5542C180.68 53.4142 181.957 52.7843 181.957 48.2208V36.644" fill="#003170"/>
<path d="M188.999 28.007C194.38 28.2869 192.264 28.147 196.168 28.287C201.478 28.147 199.817 28.2869 203.792 28.007V28.8469C202.003 29.1269 199.888 30.0368 199.888 32.2765C199.888 35.4402 205.268 46.513 206.475 49.0467C208.207 45.6031 213.644 35.3002 213.644 32.3465C213.644 29.6868 212.04 29.1129 209.996 28.8329V27.993C211.6 28.133 214.354 28.273 216.143 28.273C217.932 28.273 219.862 28.133 221.708 27.993V28.8329C219.536 29.0429 217.421 30.5827 214.595 36.616C211.714 42.7194 208.519 48.5427 206.021 54.926H203.721C201.024 48.1928 197.503 40.8296 194.947 34.4463C193.868 31.7166 191.867 29.2528 188.999 28.8329V27.993" fill="#003170"/>
<path d="M237.409 37.26C236.969 32.1365 235.876 29.2668 231.078 29.2668C227.429 29.2668 225.058 33.5504 225.058 37.26H237.409ZM224.931 39.3597C224.931 49.0467 230.183 51.7064 233.576 51.7064C236.969 51.7064 239.979 50.5165 242.478 47.7728L243.571 48.8927C240.107 52.9663 236.714 55.206 231.589 55.206C224.235 55.206 219.806 48.3328 219.806 41.1795C219.806 34.0263 224.221 27.1531 231.589 27.1531C238.318 27.1531 242.534 31.2826 243.5 39.3597H224.931Z" fill="#003170"/>
<path d="M146.026 53.4982C143.073 52.9523 141.54 52.3503 141.54 49.3267V36.84C141.54 30.3867 138.147 27.1531 132.894 27.1531C130.012 27.1531 126.619 29.3928 124.447 31.0167C122.587 28.4969 120.415 27.1531 117.406 27.1531C113.942 27.1531 111.33 28.9729 108.632 31.0866V27.573L99.2908 28.9729V29.8128C102.556 29.9528 103.649 30.5827 103.649 35.0062V49.3127C103.649 52.3923 102.045 52.9663 98.9785 53.5262V54.3661C101.094 54.2261 102.954 54.0861 104.87 54.0861C107.752 54.0861 110.634 54.2261 113.062 54.3661V53.5262C110.251 52.9663 108.646 52.4063 108.646 49.3127V33.7324C111.216 31.1426 112.352 30.2187 114.921 30.2187C119.28 30.2187 120.103 32.9484 120.103 37.5119V49.2987C120.103 52.3783 118.513 52.9523 116.014 53.5122V54.3521C117.548 54.2121 119.407 54.0721 121.324 54.0721C124.206 54.0721 127.088 54.2121 129.515 54.3521V53.5122C126.69 52.9523 125.1 52.3923 125.1 49.2987V32.8784C126.704 31.3386 128.82 30.6387 131.375 30.6387C134.129 30.6387 136.557 32.9484 136.557 37.5119V49.2987C136.557 52.3783 134.953 52.9523 132.454 53.5122V54.3521C133.987 54.2121 135.847 54.0721 137.764 54.0721C140.574 54.0721 143.4 54.2121 146.026 54.3381V53.4702" fill="#003170"/>
<path d="M179.729 8.21313C176.01 8.35312 174.065 8.4931 169.706 8.4931H157.313C155.013 8.4931 148.994 8.35312 146.552 8.21313V9.05304C152.642 9.61298 153.281 11.7128 153.281 19.5659V42.9993C153.281 50.3905 152.713 52.6863 147.588 53.4002V54.3241C150.385 54.1981 153.167 54.0861 155.964 54.0861C159.613 54.0861 163.204 54.2261 166.853 54.3661V53.5262C159.939 52.0564 159.045 51.6364 159.045 44.1892V29.6728C161.217 29.6728 163.077 29.6728 164.61 29.8128C170.047 30.3027 170.842 32.1225 172.517 39.1498H173.284C173.156 35.8461 173.099 33.2564 173.099 29.8828C173.099 26.7331 173.156 23.4995 173.284 20.3498H172.517C170.785 25.6832 169.28 27.853 164.156 27.853H159.031V10.4669C160.635 10.4669 162.04 10.3269 163.517 10.3269C171.154 10.3269 174.76 10.0889 177.358 16.4862H179.502C179.474 15.6883 179.459 14.8764 179.459 13.9805C179.459 12.0907 179.587 10.2009 179.715 8.22713" fill="#003170"/>
<path d="M242.407 26.1032H242.705C243.046 26.1032 243.316 25.9772 243.316 25.6693C243.316 25.4453 243.159 25.2353 242.705 25.2353C242.577 25.2353 242.478 25.2353 242.407 25.2493V26.1032ZM242.407 27.4891H242.01V24.9834C242.222 24.9554 242.421 24.9274 242.734 24.9274C243.117 24.9274 243.372 25.0114 243.529 25.1233C243.685 25.2353 243.756 25.4033 243.756 25.6413C243.756 25.9632 243.529 26.1732 243.259 26.2432V26.2712C243.472 26.3132 243.628 26.5092 243.685 26.8732C243.741 27.2651 243.812 27.4191 243.841 27.4891H243.415C243.358 27.4051 243.287 27.1811 243.245 26.8452C243.188 26.5232 243.017 26.4112 242.691 26.4112H242.407V27.4891ZM242.833 24.2834C241.839 24.2834 241.016 25.1233 241.016 26.1732C241.016 27.2231 241.839 28.077 242.847 28.077C243.855 28.077 244.664 27.2371 244.664 26.1732C244.664 25.1093 243.855 24.2694 242.847 24.2694L242.833 24.2834ZM242.847 23.9335C244.096 23.9335 245.09 24.9274 245.09 26.1732C245.09 27.4191 244.096 28.427 242.847 28.427C241.598 28.427 240.59 27.4331 240.59 26.1732C240.59 24.9134 241.598 23.9335 242.847 23.9335Z" fill="#003170"/>
<path d="M182.866 13.5886L184.485 18.502H189.723L185.493 21.5257L187.097 26.4392L182.866 23.4015L178.65 26.4392L180.254 21.5257L176.023 18.502H181.262L182.866 13.5886Z" fill="#FCAF17"/>
<path fill-rule="evenodd" clip-rule="evenodd" d="M247.787 8.31113C245.771 0.751956 230.14 -1.75377 212.863 2.72574C200.611 5.8894 190.816 11.7268 186.897 17.5361C191.724 14.3305 198.141 11.5028 205.424 9.61299C222.701 5.14748 238.332 7.6532 240.348 15.2124C240.93 17.4101 240.291 19.7759 238.687 22.1696C245.302 17.7741 248.965 12.6787 247.801 8.31113" fill="#FCAF17"/>
</g>
<defs>
<clipPath id="clip0_7574_1301">
<rect width="248" height="55" fill="white" transform="translate(0 0.5)"/>
</clipPath>
</defs>
</svg>
