<svg width="45" height="46" viewBox="0 0 45 46" fill="none" xmlns="http://www.w3.org/2000/svg">
<path d="M40.4868 14.0056C40.2732 13.2133 39.8558 12.4906 39.2762 11.9097C38.6966 11.3288 37.9749 10.9098 37.183 10.6944C34.2468 9.88814 22.4999 9.87501 22.4999 9.87501C22.4999 9.87501 10.7549 9.86189 7.81676 10.6325C7.02537 10.8578 6.30518 11.2827 5.72532 11.8665C5.14547 12.4503 4.72542 13.1734 4.50551 13.9663C3.73114 16.9025 3.72364 22.9925 3.72364 22.9925C3.72364 22.9925 3.71614 29.1125 4.48489 32.0188C4.91614 33.6256 6.18176 34.895 7.79051 35.3281C10.7568 36.1344 22.4718 36.1475 22.4718 36.1475C22.4718 36.1475 34.2186 36.1606 37.1549 35.3919C37.9471 35.1769 38.6694 34.7589 39.2505 34.1791C39.8316 33.5993 40.2512 32.878 40.468 32.0863C41.2443 29.1519 41.2499 23.0638 41.2499 23.0638C41.2499 23.0638 41.2874 16.9419 40.4868 14.0056ZM18.7424 28.6344L18.7518 17.3844L28.5149 23.0188L18.7424 28.6344Z" fill="white"/>
</svg>
